<?xml version="1.0" encoding="utf-8"?>
<!-- Generator: Adobe Illustrator 22.1.0, SVG Export Plug-In . SVG Version: 6.00 Build 0)  -->
<svg version="1.1" id="Ebene_1" xmlns="http://www.w3.org/2000/svg" xmlns:xlink="http://www.w3.org/1999/xlink" x="0px" y="0px"
	 viewBox="0 0 1000 1000" style="enable-background:new 0 0 1000 1000;" xml:space="preserve">
<style type="text/css">
	.st0{fill:#1E1E1E;}
	.st1{fill:#FFFFFF;}
	.st2{fill:#5D5D5D;}
</style>
<g id="Ebene_2_xA0_Bild_1_">
	<path class="st0" d="M0,0v1000h1000V0H0z M932.8,936.4H62.6V66.2h870.2V936.4z"/>
	<rect x="62.6" y="64.9" class="st1" width="870.2" height="871.6"/>
</g>
<g id="EBU_x2018_S_x0D_BLOG">
	<g>
		<path class="st0" d="M217.1,476.8H86V258.1h126.1v40.1h-76.9v48.7h71.5v40h-71.5v50h81.9V476.8z"/>
		<path class="st0" d="M252.2,476.8V258.1h79.6c24.4,0,43.2,4.5,56.3,13.4c13.1,8.9,19.7,21.6,19.7,37.8c0,11.8-4,22.1-12,31
			c-8,8.8-18.2,15-30.6,18.5v0.6c15.6,1.9,28,7.7,37.3,17.2c9.3,9.6,14,21.2,14,34.9c0,20-7.2,35.9-21.5,47.7
			c-14.3,11.7-33.9,17.6-58.7,17.6L252.2,476.8L252.2,476.8z M301.5,294.4v51.9h21.7c10.2,0,18.2-2.5,24-7.4s8.8-11.7,8.8-20.4
			c0-16.1-12-24.1-36-24.1H301.5z M301.5,382.8v57.6h26.7c11.4,0,20.3-2.6,26.8-7.9s9.7-12.5,9.7-21.7c0-8.7-3.2-15.6-9.5-20.6
			c-6.4-5-15.2-7.5-26.6-7.5h-27.1V382.8z"/>
		<path class="st0" d="M630.7,382c0,65.7-30.6,98.5-91.8,98.5c-59.4,0-89.1-32.1-89.1-96.2V258.1h49.4V385
			c0,35.4,13.8,53.1,41.5,53.1c27.1,0,40.7-17.1,40.7-51.2V258.1h49.3V382z"/>
		<path class="st2" d="M726.7,252.9l-16.8,67.7H668l28.8-67.7L726.7,252.9L726.7,252.9z"/>
		<path class="st2" d="M758.8,468.4v-48.8c8.8,7.4,18.5,13,28.8,16.7c10.4,3.7,20.8,5.6,31.4,5.6c6.2,0,11.6-0.6,16.2-1.7
			c4.6-1.1,8.5-2.7,11.6-4.7s5.4-4.3,6.9-7s2.3-5.6,2.3-8.8c0-4.3-1.2-8.1-3.7-11.4c-2.4-3.4-5.8-6.5-10-9.3s-9.2-5.6-15-8.2
			s-12-5.3-18.8-8.1c-17.1-7.1-29.8-15.8-38.2-26.1c-8.4-10.3-12.6-22.7-12.6-37.2c0-11.4,2.3-21.2,6.9-29.4
			c4.6-8.2,10.8-14.9,18.7-20.2c7.9-5.3,17-9.2,27.4-11.7s21.4-3.7,32.9-3.7c11.4,0,21.5,0.7,30.3,2.1s16.9,3.5,24.3,6.3v45.6
			c-3.7-2.5-7.7-4.8-12-6.7c-4.3-1.9-8.8-3.5-13.3-4.8c-4.6-1.3-9.1-2.2-13.6-2.8c-4.5-0.6-8.8-0.9-12.9-0.9
			c-5.6,0-10.7,0.5-15.3,1.6s-8.4,2.6-11.6,4.5c-3.2,1.9-5.6,4.2-7.3,6.9c-1.7,2.7-2.6,5.7-2.6,9.1c0,3.7,1,6.9,2.9,9.8
			s4.7,5.6,8.2,8.2c3.6,2.6,7.9,5.1,13,7.6s10.8,5.1,17.2,7.7c8.7,3.7,16.6,7.5,23.6,11.7c7,4.1,12.9,8.8,17.9,14
			s8.8,11.1,11.4,17.8c2.6,6.7,4,14.4,4,23.3c0,12.2-2.3,22.4-6.9,30.7c-4.6,8.3-10.9,15-18.8,20.1c-7.9,5.1-17.2,8.8-27.7,11.1
			c-10.5,2.2-21.6,3.4-33.3,3.4c-12,0-23.4-1-34.2-3.1C776.2,475.5,766.8,472.4,758.8,468.4z"/>
		<path class="st0" d="M86,736.3V517.6h79.6c24.4,0,43.2,4.5,56.3,13.4s19.7,21.6,19.7,37.8c0,11.8-4,22.1-12,31
			c-8,8.8-18.2,15-30.6,18.5v0.6c15.6,1.9,28,7.7,37.3,17.2c9.3,9.6,14,21.2,14,34.9c0,20-7.2,35.9-21.5,47.7
			c-14.3,11.7-33.9,17.6-58.7,17.6H86z M135.2,553.9v51.9h21.7c10.2,0,18.2-2.5,24-7.4s8.8-11.7,8.8-20.4c0-16.1-12-24.1-36-24.1
			H135.2z M135.2,642.4V700h26.7c11.4,0,20.3-2.6,26.8-7.9c6.5-5.3,9.7-12.5,9.7-21.7c0-8.7-3.2-15.6-9.5-20.6
			c-6.4-5-15.2-7.5-26.6-7.5h-27.1V642.4z"/>
		<path class="st0" d="M416.5,736.3H286.2V517.6h49.3v178.7h81V736.3z"/>
		<path class="st0" d="M538.3,740.1c-31.3,0-56.8-10.2-76.6-30.6c-19.7-20.4-29.6-46.9-29.6-79.7c0-34.6,10-62.5,30-83.9
			s46.6-32,79.6-32c31.2,0,56.5,10.2,75.7,30.7c19.3,20.4,28.9,47.4,28.9,80.8c0,34.4-10,62.1-30,83.1
			C596.5,729.6,570.5,740.1,538.3,740.1z M540.5,556.4c-17.3,0-31,6.5-41.2,19.4c-10.2,13-15.3,30.1-15.3,51.5
			c0,21.7,5.1,38.8,15.3,51.4c10.2,12.6,23.5,18.9,40,18.9c17,0,30.4-6.1,40.4-18.4c10-12.3,14.9-29.3,14.9-51
			c0-22.7-4.8-40.3-14.5-52.9C570.5,562.7,557.2,556.4,540.5,556.4z"/>
		<path class="st0" d="M862.2,721.7c-21.4,12.3-47.9,18.5-79.6,18.5c-35.2,0-62.9-9.7-83.2-29.2S669,664.7,669,630.6
			c0-34.4,11.1-62.4,33.2-84c22.2-21.7,51.6-32.5,88.5-32.5c23.2,0,43.6,3.2,61.3,9.6v46.2c-16.9-9.8-37.5-14.6-61.9-14.6
			c-20.4,0-37.1,6.6-49.9,19.9c-12.9,13.3-19.3,31-19.3,53.1c0,22.5,5.8,39.9,17.3,52.2s27.1,18.5,46.7,18.5c11.8,0,21.1-1.7,28.1-5
			v-42.7h-43.8V612h93L862.2,721.7L862.2,721.7z"/>
	</g>
</g>
</svg>
