<svg version="1.2" xmlns="http://www.w3.org/2000/svg" viewBox="0 0 720 720" width="720" height="720">
	<title>New Project</title>
	<style>
		.s0 { fill: #000000 } 
	</style>
	<path id="Shape 1" fill-rule="evenodd" class="s0" d="m0 0h653.5l-49.1 49h-555.4v553.7l-49 48.8zm720 726h-658.7l55.2-55h554.5v-552.8l49-48.9z"/>
	<path id="D" class="s0" aria-label="D"  d="m296.6 591.4q-54.3 0-102.3-8.7v-448.9q44.3-5.3 102.6-5.3 58.7 0 106 16.1 47.7 15.7 79.5 45.3 64.5 59 64.5 165.3 0 119.1-71.8 180.8-64.4 55.4-178.5 55.4zm-15.1-380.7v298.8q21.8 4.1 43.6 4.1 21.8 0 47-8.4 25.1-8.7 43.6-26.9 39.6-38.2 39.6-111.3 0-120.1-87.6-147.6-28.8-9.1-66.7-9.1h-9.1q-5 0-10.4 0.4z"/>
	<path id="Shape 2" fill-rule="evenodd" class="s0" d="m15.4 378.3v-48h178.6v48zm705.4-48v48h-177.8v-48z"/>
</svg>